<svg xmlns="http://www.w3.org/2000/svg" id="logo-vnpay" width="120.402" height="40.5" viewBox="0 0 120.402 40.5">
  <rect id="boundingbox" width="163.746" height="40" transform="translate(0.001)" fill="#fff" opacity="0"/>
  <g id="logo-vnpay2" data-name="logo-vnpay" transform="translate(0 0.001)">
    <g id="Group_22761" data-name="Group 22761">
      <path id="Path_8302" data-name="Path 8302" d="M116.456,93.894l-3.8,3.8-.189.187-1.208,1.211-.9.9-1.208,1.208-.187.187-.527.527-.187.189h0l-1.782,1.779v0l-.187.187a7.845,7.845,0,0,1-1.752,1.319,7.959,7.959,0,0,1-.975.453,7.754,7.754,0,0,1-2.3.5,7.663,7.663,0,0,1-1.445-.039,7.754,7.754,0,0,1-2.973-.989,5.392,5.392,0,0,1-1.139-.8s0,0-.005,0q-.111-.107-.222-.222l-6.923-6.923-.148-.148a2.622,2.622,0,0,1-.684-1.765c0-.076,0-.153.01-.227a2.714,2.714,0,0,1,.049-.327c.01-.042.02-.084.03-.123l.014-.052a2.692,2.692,0,0,1,.48-.908c.059-.071.12-.14.187-.209l.123-.12,7.375-7.378h0l4.469-4.469a2.66,2.66,0,0,1,3.63-.128Z" transform="translate(-87.71 -80.864)" fill="#005aa9"/>
      <path id="Union_7" data-name="Union 7" d="M14.342,32.95l0-.005c-.067-.057-.13-.112-.194-.172l-1.5-1.5L8.434,27.06l-1.4-1.4-.2-.2a4.338,4.338,0,0,0,.691.054H7.53l.187,0a4.892,4.892,0,0,0,.8-.1,5.707,5.707,0,0,0,1.294-.438,7.374,7.374,0,0,0,1.934-1.358c.129-.126.224-.231.264-.278l3.239-3.182.012.015L26.4,9.216l.059-.071,5.409-5.324a2.138,2.138,0,0,1,2.693-.236l1.282,1.283s0,0,0,0L42.8,11.825a2.331,2.331,0,0,1,.175.192,2.474,2.474,0,0,1-.175,3.3l-.187.19-8.3,8.423L25.6,32.783a7.582,7.582,0,0,1-.877.755c-.01.01-.023.02-.034.03-.042.03-.084.061-.129.091,0,.005-.009.007-.014.013a8.036,8.036,0,0,1-10.2-.721ZM7.529,24.8a4.166,4.166,0,0,1-1.742-.389L4.369,23l-.347-.345-.059-.061-.659-.66L.153,18.746l.069.067a5.405,5.405,0,0,0,1.145.806,7.753,7.753,0,0,0,2.973.989,7.894,7.894,0,0,0,3.745-.463,7.955,7.955,0,0,0,.975-.453,7.835,7.835,0,0,0,1.752-1.319L11,18.186v0L12.78,16.4h0l.187-.189.527-.526.187-.187,1.209-1.209.9-.9L17,12.182l.19-.187,7.661-7.661L28.011.911l.02-.02L28.2.724a2.47,2.47,0,0,1,3.494,0l1.731,1.73h0l.057.057a2.832,2.832,0,0,0-2.117.8L25.513,9.074l-.059.071L15.266,19.171l-.015-.013L11.5,22.845l-.024.03c-.01.013-.091.1-.227.237a6.65,6.65,0,0,1-1.74,1.223,5.094,5.094,0,0,1-1.132.383A4.573,4.573,0,0,1,7.7,24.8ZM0,18.592l.153.154Q.076,18.671,0,18.592Z" transform="translate(7.754 4.837)" fill="#ec1c24" stroke="rgba(0,0,0,0)" stroke-miterlimit="10" stroke-width="1"/>
      <path id="Union_6" data-name="Union 6" d="M4.63,18.023l-1.888-1.9A9.459,9.459,0,1,1,16.168,2.791l.006.009a.5.5,0,0,1-.006.711.51.51,0,0,1-.715-.006,8.449,8.449,0,1,0-12,11.9L6.027,18a.231.231,0,0,1,.043.056l-.037,0c-.172.012-.346.018-.52.018A7.6,7.6,0,0,1,4.63,18.023Zm.231-4.006A6.481,6.481,0,0,1,4.114,5.79a.506.506,0,0,1,.832.575,5.467,5.467,0,0,0,.63,6.94L9.333,17.09a.083.083,0,0,0-.023.012,7.937,7.937,0,0,1-.952.443Zm4.659.459L6.976,11.911A3.489,3.489,0,0,1,11.931,7l3.942,3.975-.713.713L11.215,7.709A2.48,2.48,0,1,0,7.695,11.2l2.541,2.562a.5.5,0,0,1,0,.716.494.494,0,0,1-.353.145A.508.508,0,0,1,9.52,14.476ZM9.095,9.81A.5.5,0,1,1,9.81,9.1l3.953,3.983-.017.017-.526.526-.171.171Zm4.238-4.2a5.447,5.447,0,0,0-5.571-1.35A.5.5,0,1,1,7.451,3.3a6.449,6.449,0,0,1,6.6,1.6L17.984,8.86l-.016.016-.528.528-.17.167Zm4.8.6a.5.5,0,1,1,.716-.711L20.1,6.749l-.713.713Z" transform="translate(7.503 7.427)" fill="#009dda" stroke="rgba(0,0,0,0)" stroke-miterlimit="10" stroke-width="1"/>
    </g>
    <g id="Group_22762" data-name="Group 22762" transform="translate(53.456 10.148)">
      <g id="Group_22759" data-name="Group 22759" transform="translate(0 0.085)">
        <path id="Path_8300" data-name="Path 8300" d="M329.5,114.965l-5.068-7.266-.515-.473h5l3.386,5.493.272-.222,2.047-3.042a1.6,1.6,0,0,0-.282-2.229h4.72l-5.456,7.738,0,5.614.962,1.143h-5.865l.827-1.126c0-1.871-.068-3.764-.02-5.63Zm-13.761-7.739a2.1,2.1,0,0,1,.57,1.245,1.767,1.767,0,0,1-.1.862l-3.769,10.93a4.027,4.027,0,0,1-1.072,1.428h4.114a1.7,1.7,0,0,1-.572-.977,1.614,1.614,0,0,1,.014-.82l.836-2.6h4.787l.746,2a2.3,2.3,0,0,1,.142.629,1.882,1.882,0,0,1-.767,1.8h6.449a5.943,5.943,0,0,1-1.541-1.87l-4.708-12.628Zm4.1,8.189h-3.424l1.66-4.731,1.764,4.731ZM302.7,107.239l3.24-.013h3.935a3.947,3.947,0,0,1,3.935,3.935v.485a3.943,3.943,0,0,1-3.935,3.88l-1.795.055a3.678,3.678,0,0,0,1.867-3.849c-.145-1.212-.769-2.377-1.809-2.4l-.656-.014V120.1a.769.769,0,0,0,.147.482,7.465,7.465,0,0,0,.653.88l.189.228h-5.582c.084-.1.166-.207.244-.313a3.58,3.58,0,0,0,.432-.748,1.171,1.171,0,0,0,.108-.492V108.555C303.65,107.951,303.05,107.609,302.7,107.239Z" transform="translate(-272.438 -107.162)" fill="#005aa9" fill-rule="evenodd"/>
        <path id="Path_8301" data-name="Path 8301" d="M225.236,107.062h4.506l3.781,10.843,3.207-8.981a1.044,1.044,0,0,0-.125-.763c-.178-.364-.367-.718-.545-1.083h3.365c-.2.733-.494,1.538-.748,2.276l-4.346,12.628a7.089,7.089,0,0,1-3.531-1.675,6.171,6.171,0,0,1-1.423-2.547l-3.633-9.623a9.36,9.36,0,0,0-.507-1.075Zm17.989,5.081v7.748c0,.314.073.371.266.623l.888,1.157h-4.241l.716-1.093a1.15,1.15,0,0,0,.264-.752V109l-1.192-1.939h4.4l7.115,9.165v-7.3a1.167,1.167,0,0,0-.253-.763c-.239-.364-.488-.718-.727-1.083h4.237l-.884,1.157c-.194.252-.266.309-.266.623v13.183a5.988,5.988,0,0,1-4.428-2.3Z" transform="translate(-225.236 -107.062)" fill="#ec1c24" fill-rule="evenodd"/>
      </g>
      
    </g>
  </g>
</svg>